# xmcd
#
# Track frame offsets: 
#        150
#        13155
#        26885
#        42707
#        56630
#        68067
#        79372
#        92370
#        105287
#        120380
#
# Disc length: 1764 seconds
#
# Revision: 3
# Processed by: cddbd v1.4PL0 Copyright (c) Steve Scherf et al.
# Submitted via: ExactAudioCopy v0.90b3
#
DISCID=7d06e20a
DTITLE=Janie Frickie - Greatest Hits
DYEAR=1900
DGENRE=Country
TTITLE0=Do Me With Love
TTITLE1=Pass Me By (If You're Only Passing Through)
TTITLE2=Playing Hard To Get
TTITLE3=But Love Me
TTITLE4=Down To My Last Broken Heart
TTITLE5=Don't Worry 'Bout Me Baby 
TTITLE6=What're You Doing Tonight
TTITLE7=I'll Need Someone To Hold Me (When I Cry)
TTITLE8=Please Help Me I'm Falling (In Love With You)
TTITLE9=I'll Love Away Your Troubles For Awhile
EXTD=
EXTT0=
EXTT1=
EXTT2=
EXTT3=
EXTT4=
EXTT5=
EXTT6=
EXTT7=
EXTT8=
EXTT9=
PLAYORDER=
